# xmcd CD database file
#
# Track frame offsets:
#	150
#	63260
#	87110
#	120828
#	141463
#	160168
#	182095
#	213863
#
# Disc length: 3058 seconds
#
# Revision: 3
# Processed by: cddbd v1.5.2PL0 Copyright (c) Steve Scherf et al.
# Submitted via: CDex 1.51
#
DISCID=640bf008
DTITLE=James Brown - Soul Syndrome
DYEAR=1980
DGENRE=Blues
TTITLE0=Rapp Payback (Where Iz Moses?)
TTITLE1=Mashed Potatoes
TTITLE2=Funky Men
TTITLE3=Smokin' and Drinkin'
TTITLE4=Stay With Me
TTITLE5=Honky Tonk
TTITLE6=Rapp Payback(Where Iz Moses?) - 12 " Single Version
TTITLE7=Rapp Payback (Where Iz Moses?) - Pt II - 12" Single Version
EXTD=YEAR: 1980
EXTT0=
EXTT1=
EXTT2=
EXTT3=
EXTT4=
EXTT5=
EXTT6=
EXTT7=
PLAYORDER=
